# xmcd
#
# Track frame offsets:
#	150
#	15321
#	27283
#	45649
#	59635
#	75590
#	89267
#	105022
#	118018
#	133677
#	148043
#	166296
#	176800
#	189215
#	204479
#	224571
#	238413
#	253352
#	270447
#	283513
#
# Disc length: 3956 seconds
#
# Revision: 0
# Processed by: cddbd v1.4PL0 Copyright (c) Steve Scherf et al.
# Submitted via: dBpowerAMP V4.0
#
DISCID=1f0f7214
DTITLE=los romeros de la puebla - antologia cd2
DYEAR=2000
DGENRE=sevillanas 
TTITLE0=la proxima primavera
TTITLE1=sus caracoles
TTITLE2=la playa de la higerita
TTITLE3=el ouente del ajoli
TTITLE4=esa huella que deja el amor
TTITLE5=hablando de amor
TTITLE6=cazador d ela rocina
TTITLE7=08 gitrana guapa
TTITLE8=09y le hacen palmas 
TTITLE9=10¿donde está lallave?
TTITLE10=11¡vamos por ella¡
TTITLE11=12 sevillanas de los emigrantes
TTITLE12=13 tu yegua y mi caballo
TTITLE13=14requiebro
TTITLE14=15 ay mi granada
TTITLE15=16 que ya suena el romerito
TTITLE16=17 tabernero
TTITLE17=18 coplas de triana
TTITLE18=19 la feria junto al rio
TTITLE19=20 viva mi andalucia
EXTD=
EXTT0=
EXTT1=
EXTT2=
EXTT3=
EXTT4=
EXTT5=
EXTT6=
EXTT7=
EXTT8=
EXTT9=
EXTT10=
EXTT11=
EXTT12=
EXTT13=
EXTT14=
EXTT15=
EXTT16=
EXTT17=
EXTT18=
EXTT19=
PLAYORDER=
